<svg xmlns="http://www.w3.org/2000/svg" xmlns:xlink="http://www.w3.org/1999/xlink" width="20" height="20" viewBox="0 0 20 20">
  <defs>
    <clipPath id="clip-path">
      <rect id="Rectangle_2149" data-name="Rectangle 2149" width="20" height="20" transform="translate(301 696)" fill="#0004bd"/>
    </clipPath>
  </defs>
  <g id="Mask_Group_74" data-name="Mask Group 74" transform="translate(-301 -696)" clip-path="url(#clip-path)">
    <path id="truck-droplet" d="M4.25,6.409c0-.816,1.231-2.566,1.872-3.418a.469.469,0,0,1,.756,0c.641.853,1.872,2.6,1.872,3.418A2.167,2.167,0,0,1,6.5,8.5,2.167,2.167,0,0,1,4.25,6.409ZM15,16a2.983,2.983,0,0,1-3-3H8a3,3,0,0,1-6,0,2,2,0,0,1-2-2V2A2,2,0,0,1,2,0h9a2,2,0,0,1,2,2V3h1.334a1.748,1.748,0,0,1,1.237.513l2.916,2.916A1.748,1.748,0,0,1,19,7.666V11.5h.25a.75.75,0,0,1,0,1.5H18a3,3,0,0,1-3,3ZM1.5,2v9a.5.5,0,0,0,.5.5h.4a3,3,0,0,1,5.2,0H11a.5.5,0,0,0,.5-.5V2a.5.5,0,0,0-.5-.5H2A.5.5,0,0,0,1.5,2ZM17.438,7.5s-.006-.009-.009-.012L14.512,4.572a.248.248,0,0,0-.178-.072H13v3ZM5,14.5A1.5,1.5,0,1,0,3.5,13,1.5,1.5,0,0,0,5,14.5Zm10-3A1.5,1.5,0,1,0,16.5,13,1.5,1.5,0,0,0,15,11.5Z" transform="translate(301 698)" fill="#0004bd"/>
  </g>
</svg>
