<svg xmlns="http://www.w3.org/2000/svg" xmlns:xlink="http://www.w3.org/1999/xlink" width="20" height="20" viewBox="0 0 20 20">
  <defs>
    <clipPath id="clip-path">
      <rect id="Rectangle_2149" data-name="Rectangle 2149" width="20" height="20" transform="translate(301 698)" fill="#0004bd"/>
    </clipPath>
  </defs>
  <g id="Mask_Group_76" data-name="Mask Group 76" transform="translate(-301 -698)" clip-path="url(#clip-path)">
    <path id="cog" d="M19.464,12.068l-1.315-.759a7.87,7.87,0,0,0,0-1.972l1.315-.759a.965.965,0,0,0,.445-1.109,9.983,9.983,0,0,0-2.32-4.016A.968.968,0,0,0,16.4,3.28l-1.313.758a7.828,7.828,0,0,0-1.707-.987V1.534a.968.968,0,0,0-.745-.942,10.07,10.07,0,0,0-4.628,0,.968.968,0,0,0-.745.942V3.051a7.827,7.827,0,0,0-1.707.987L4.243,3.28a.968.968,0,0,0-1.187.173A9.983,9.983,0,0,0,.736,7.469a.965.965,0,0,0,.445,1.109L2.5,9.337a7.87,7.87,0,0,0,0,1.972l-1.315.759a.965.965,0,0,0-.445,1.109,9.983,9.983,0,0,0,2.32,4.016.968.968,0,0,0,1.187.173l1.313-.758a7.826,7.826,0,0,0,1.707.987v1.517a.968.968,0,0,0,.745.942,10.07,10.07,0,0,0,4.628,0,.968.968,0,0,0,.745-.942V17.594a7.828,7.828,0,0,0,1.707-.987l1.313.758a.968.968,0,0,0,1.187-.173,9.983,9.983,0,0,0,2.32-4.016.965.965,0,0,0-.445-1.109Zm-2.64,4.051L14.956,15.04A6.967,6.967,0,0,1,12.092,16.7v2.156a8.756,8.756,0,0,1-3.538,0V16.7A6.968,6.968,0,0,1,5.689,15.04L3.822,16.118a8.71,8.71,0,0,1-1.771-3.063l1.868-1.078a7.025,7.025,0,0,1,0-3.31L2.051,7.59A8.716,8.716,0,0,1,3.822,4.526L5.689,5.605A6.957,6.957,0,0,1,8.554,3.949V1.793a8.742,8.742,0,0,1,3.538,0V3.949a6.957,6.957,0,0,1,2.864,1.656l1.867-1.079A8.715,8.715,0,0,1,18.595,7.59L16.727,8.668a7.025,7.025,0,0,1,0,3.31l1.868,1.078A8.71,8.71,0,0,1,16.823,16.118Zm-6.5-9.667a3.871,3.871,0,1,0,3.871,3.871A3.875,3.875,0,0,0,10.323,6.452Zm0,6.452A2.581,2.581,0,1,1,12.9,10.323,2.584,2.584,0,0,1,10.323,12.9Z" transform="translate(300.677 697.677)"/>
  </g>
</svg>
