<svg xmlns="http://www.w3.org/2000/svg" xmlns:xlink="http://www.w3.org/1999/xlink" width="27" height="27" viewBox="0 0 27 27">
  <defs>
    <clipPath id="clip-path">
      <rect id="icon" width="27" height="27" transform="translate(123 5)" fill="#0004bd"/>
    </clipPath>
  </defs>
  <g id="Mask_Group_132" data-name="Mask Group 132" transform="translate(-123 -5)" clip-path="url(#clip-path)">
    <path id="box-usd" d="M26.994,10.607a3.853,3.853,0,0,0-.458-1.826L23.577,3.242a1.92,1.92,0,0,0-1.826-1.314H5.249a1.931,1.931,0,0,0-1.832,1.32L.458,8.787A3.853,3.853,0,0,0,0,10.613C.006,14.259,0,27,0,27a1.927,1.927,0,0,0,1.929,1.929H25.071A1.926,1.926,0,0,0,27,27S26.994,14.259,26.994,10.607ZM14.946,4.821h6.2L23.2,8.679H14.946Zm-9.088,0h6.2V8.679H3.8ZM2.893,26.036c0-2.2.006-9.854.006-14.464H24.1c0,4.61.006,12.265.006,14.464Zm12.132-7.817-2.543-.687a.54.54,0,0,1-.428-.5.571.571,0,0,1,.609-.524h1.585a1.468,1.468,0,0,1,.711.181.446.446,0,0,0,.554-.072l.729-.765a.449.449,0,0,0-.066-.675A3.353,3.353,0,0,0,14.47,14.6v-.621a.484.484,0,0,0-.482-.482h-.964a.484.484,0,0,0-.482.482V14.6a2.431,2.431,0,0,0-.56,4.791l2.543.687a.54.54,0,0,1,.428.5.571.571,0,0,1-.609.524H12.759a1.468,1.468,0,0,1-.711-.181.446.446,0,0,0-.554.072l-.729.765a.449.449,0,0,0,.066.675A3.353,3.353,0,0,0,12.536,23v.621a.484.484,0,0,0,.482.482h.964a.484.484,0,0,0,.482-.482V23.01a2.431,2.431,0,0,0,.56-4.791Z" transform="translate(123 3.071)" fill="#0004bd"/>
  </g>
</svg>
