<svg id="Button-icon" xmlns="http://www.w3.org/2000/svg" xmlns:xlink="http://www.w3.org/1999/xlink" width="42" height="42" viewBox="0 0 42 42">
  <defs>
    <linearGradient id="linear-gradient" x1="0.5" x2="0.5" y2="1" gradientUnits="objectBoundingBox">
      <stop offset="0" stop-color="#faf9ff"/>
      <stop offset="1" stop-color="#fff"/>
    </linearGradient>
    <linearGradient id="linear-gradient-2" x1="0.5" x2="0.5" y2="1" gradientUnits="objectBoundingBox">
      <stop offset="0" stop-color="#22b567"/>
      <stop offset="1" stop-color="#00a186"/>
    </linearGradient>
    <clipPath id="clip-path">
      <rect id="icon" width="18" height="18" transform="translate(12 12)" fill="url(#linear-gradient)"/>
    </clipPath>
  </defs>
  <rect id="base" width="42" height="42" rx="21" fill="url(#linear-gradient-2)"/>
  <g id="Mask_Group_120" data-name="Mask Group 120" clip-path="url(#clip-path)">
    <path id="phone-alt" d="M17.024,11.6,13.453,10.07a1.612,1.612,0,0,0-1.877.461l-1.15,1.406A10.936,10.936,0,0,1,6.06,7.574l1.406-1.15a1.614,1.614,0,0,0,.461-1.878L6.4.977A1.6,1.6,0,0,0,4.559.041L1.248.8A1.6,1.6,0,0,0,0,2.373,15.623,15.623,0,0,0,15.629,18,1.6,1.6,0,0,0,17.2,16.751l.763-3.312A1.608,1.608,0,0,0,17.024,11.6Zm-1.462,4.714A13.939,13.939,0,0,1,1.687,2.436L4.876,1.7l1.48,3.453L3.962,7.113a12.735,12.735,0,0,0,6.926,6.926l1.958-2.394,3.452,1.48Z" transform="translate(12 12)" fill="url(#linear-gradient)"/>
  </g>
</svg>
