<svg xmlns="http://www.w3.org/2000/svg" xmlns:xlink="http://www.w3.org/1999/xlink" width="19" height="19" viewBox="0 0 19 19">
  <defs>
    <clipPath id="clip-path">
      <rect id="icon" width="19" height="19" transform="translate(282 3)" fill="#0004bd"/>
    </clipPath>
  </defs>
  <g id="Mask_Group_98" data-name="Mask Group 98" transform="translate(-282 -3)" clip-path="url(#clip-path)">
    <path id="truck" d="M18.525,10.925H18.05V7.478a2.15,2.15,0,0,0-.626-1.511L14.933,3.476a2.155,2.155,0,0,0-1.511-.626H12.35V1.663A1.664,1.664,0,0,0,10.688,0H1.663A1.664,1.664,0,0,0,0,1.663v9.025A1.664,1.664,0,0,0,1.663,12.35H1.9a2.85,2.85,0,1,0,5.7,0h3.8a2.85,2.85,0,0,0,5.7,0h1.425A.476.476,0,0,0,19,11.875V11.4A.476.476,0,0,0,18.525,10.925ZM4.75,13.775A1.425,1.425,0,1,1,6.175,12.35,1.425,1.425,0,0,1,4.75,13.775Zm6.175-2.85H7.205a2.828,2.828,0,0,0-4.91,0H1.663a.238.238,0,0,1-.238-.238V1.663a.238.238,0,0,1,.238-.238h9.025a.238.238,0,0,1,.238.238Zm1.425-6.65h1.072a.73.73,0,0,1,.5.208L16.094,6.65H12.35Zm1.9,9.5a1.425,1.425,0,1,1,1.425-1.425A1.425,1.425,0,0,1,14.25,13.775Zm2.375-3a2.83,2.83,0,0,0-4.275-.54V8.075h4.275Z" transform="translate(282 4.9)" fill="#0004bd"/>
  </g>
</svg>
