<svg xmlns="http://www.w3.org/2000/svg" xmlns:xlink="http://www.w3.org/1999/xlink" width="19" height="19" viewBox="0 0 19 19">
  <defs>
    <clipPath id="clip-path">
      <rect id="icon" width="19" height="19" transform="translate(291 3)" fill="#e3652b"/>
    </clipPath>
  </defs>
  <g id="Mask_Group_97" data-name="Mask Group 97" transform="translate(-291 -3)" clip-path="url(#clip-path)">
    <path id="usd-circle" d="M11.147,9.347,8.389,8.508a.89.89,0,0,1-.582-.87.847.847,0,0,1,.785-.9h1.724a1.528,1.528,0,0,1,.762.207.633.633,0,0,0,.755-.061l.46-.433a.62.62,0,0,0-.088-.965,3.4,3.4,0,0,0-1.777-.578V4.29a.615.615,0,0,0-.613-.613H9.2a.615.615,0,0,0-.613.613V4.9A2.683,2.683,0,0,0,5.976,7.638,2.741,2.741,0,0,0,7.86,10.266l2.758.839a.89.89,0,0,1,.582.87.847.847,0,0,1-.785.9H8.692a1.528,1.528,0,0,1-.762-.207.633.633,0,0,0-.755.061l-.46.433a.62.62,0,0,0,.088.965,3.4,3.4,0,0,0,1.777.578v.621a.615.615,0,0,0,.613.613h.613a.615.615,0,0,0,.613-.613V14.71a2.683,2.683,0,0,0,2.612-2.735A2.741,2.741,0,0,0,11.147,9.347ZM9.5.306a9.5,9.5,0,1,0,9.5,9.5A9.5,9.5,0,0,0,9.5.306Zm0,17.161a7.661,7.661,0,1,1,7.661-7.661A7.669,7.669,0,0,1,9.5,17.468Z" transform="translate(291 2.694)" fill="#e3652b"/>
  </g>
</svg>
