<svg xmlns="http://www.w3.org/2000/svg" xmlns:xlink="http://www.w3.org/1999/xlink" width="19" height="19" viewBox="0 0 19 19">
  <defs>
    <clipPath id="clip-path">
      <rect id="icon" width="19" height="19" transform="translate(1087 2082)" fill="#cacaca"/>
    </clipPath>
  </defs>
  <g id="Mask_Group_89" data-name="Mask Group 89" transform="translate(-1087 -2082)" clip-path="url(#clip-path)">
    <path id="clock" d="M8.609,4.453a.891.891,0,0,1,1.781,0V9.025l3.165,2.108a.859.859,0,0,1,.215,1.236.817.817,0,0,1-1.2.215L9.006,10.209a.814.814,0,0,1-.4-.742ZM9.5,0A9.5,9.5,0,1,1,0,9.5,9.5,9.5,0,0,1,9.5,0ZM1.781,9.5A7.719,7.719,0,1,0,9.5,1.781,7.718,7.718,0,0,0,1.781,9.5Z" transform="translate(1087 2082)" fill="#cacaca"/>
  </g>
</svg>
