<svg xmlns="http://www.w3.org/2000/svg" xmlns:xlink="http://www.w3.org/1999/xlink" width="20" height="20" viewBox="0 0 20 20">
  <defs>
    <clipPath id="clip-path">
      <rect id="Rectangle_3091" data-name="Rectangle 3091" width="20" height="20" transform="translate(51 10)" fill="#636363"/>
    </clipPath>
  </defs>
  <g id="Mask_Group_124" data-name="Mask Group 124" transform="translate(-51 -10)" clip-path="url(#clip-path)">
    <path id="usd-circle" d="M11.734,9.839l-2.9-.883a.937.937,0,0,1-.613-.915A.892.892,0,0,1,9.044,7.1h1.815a1.609,1.609,0,0,1,.8.218.666.666,0,0,0,.794-.065l.484-.456a.652.652,0,0,0-.093-1.016,3.582,3.582,0,0,0-1.871-.609V4.516a.647.647,0,0,0-.645-.645H9.685a.647.647,0,0,0-.645.645v.645A2.824,2.824,0,0,0,6.29,8.04a2.885,2.885,0,0,0,1.984,2.766l2.9.883a.937.937,0,0,1,.613.915.892.892,0,0,1-.827.944H9.149a1.609,1.609,0,0,1-.8-.218.666.666,0,0,0-.794.065l-.484.456a.652.652,0,0,0,.093,1.016,3.582,3.582,0,0,0,1.871.609v.653a.647.647,0,0,0,.645.645h.645a.647.647,0,0,0,.645-.645v-.645a2.824,2.824,0,0,0,2.75-2.879A2.885,2.885,0,0,0,11.734,9.839ZM10,.323a10,10,0,1,0,10,10A10,10,0,0,0,10,.323Zm0,18.065a8.065,8.065,0,1,1,8.065-8.065A8.073,8.073,0,0,1,10,18.387Z" transform="translate(51 9.677)" fill="#636363"/>
  </g>
</svg>
