<svg xmlns="http://www.w3.org/2000/svg" xmlns:xlink="http://www.w3.org/1999/xlink" width="28" height="27" viewBox="0 0 28 27">
  <defs>
    <clipPath id="clip-path">
      <rect id="icon" width="28" height="27" transform="translate(132 5)" fill="#0004bd"/>
    </clipPath>
  </defs>
  <g id="Mask_Group_130" data-name="Mask Group 130" transform="translate(-132 -5)" clip-path="url(#clip-path)">
    <path id="edit" d="M19.557,16.766l1.556-1.556a.391.391,0,0,1,.666.277v7.068a2.334,2.334,0,0,1-2.333,2.333H2.333A2.334,2.334,0,0,1,0,22.556V5.445A2.334,2.334,0,0,1,2.333,3.111h13.3a.391.391,0,0,1,.277.666L14.35,5.333a.385.385,0,0,1-.277.112H2.333V22.556H19.445V17.039A.382.382,0,0,1,19.557,16.766Zm7.613-9.81L14.4,19.722l-4.395.486a2.008,2.008,0,0,1-2.217-2.217L8.279,13.6,21.044.831a2.837,2.837,0,0,1,4.02,0l2.1,2.1a2.847,2.847,0,0,1,0,4.025Zm-4.8,1.5L19.542,5.634,10.51,14.671l-.355,3.174,3.174-.355Zm3.15-3.874-2.1-2.1a.508.508,0,0,0-.719,0l-1.5,1.5,2.824,2.824,1.5-1.5A.518.518,0,0,0,25.517,4.584Z" transform="translate(132 6.057)" fill="#0004bd"/>
  </g>
</svg>
