<svg xmlns="http://www.w3.org/2000/svg" xmlns:xlink="http://www.w3.org/1999/xlink" width="29" height="27" viewBox="0 0 29 27">
  <defs>
    <clipPath id="clip-path">
      <rect id="icon" width="29" height="27" transform="translate(147 5)" fill="#0004bd"/>
    </clipPath>
  </defs>
  <g id="Mask_Group_128" data-name="Mask Group 128" transform="translate(-147 -5)" clip-path="url(#clip-path)">
    <path id="home" d="M28.71,12.456l-2.932-2.411V5.236a.4.4,0,0,0-.4-.4H23.764a.4.4,0,0,0-.4.4V8.061L16.306,2.266a2.822,2.822,0,0,0-3.612,0L.29,12.456a.806.806,0,0,0-.1,1.135l.516.619a.806.806,0,0,0,1.134.1l1.383-1.136v9.38a1.616,1.616,0,0,0,1.611,1.611h6.444a1.616,1.616,0,0,0,1.611-1.611V17.32h3.222v5.236a1.616,1.616,0,0,0,1.611,1.611h6.444a1.615,1.615,0,0,0,1.611-1.6V13.174l1.386,1.139a.806.806,0,0,0,1.134-.1l.515-.619a.806.806,0,0,0-.1-1.137ZM23.354,21.75H18.528V16.514A1.616,1.616,0,0,0,16.917,14.9H12.083a1.616,1.616,0,0,0-1.611,1.611V21.75H5.639V11.191L14.5,3.909l8.861,7.278Z" transform="translate(146.999 5.61)" fill="#0004bd"/>
  </g>
</svg>
