<svg xmlns="http://www.w3.org/2000/svg" xmlns:xlink="http://www.w3.org/1999/xlink" width="19" height="19" viewBox="0 0 19 19">
  <defs>
    <clipPath id="clip-path">
      <rect id="icon" width="19" height="19" transform="translate(1087 2082)" fill="#cacaca"/>
    </clipPath>
  </defs>
  <g id="Mask_Group_90" data-name="Mask Group 90" transform="translate(-1087 -2082)" clip-path="url(#clip-path)">
    <path id="clipboard-user" d="M11.875,2.375H10.034a2.969,2.969,0,0,0-5.818,0H2.375A2.375,2.375,0,0,0,0,4.75V16.625A2.375,2.375,0,0,0,2.375,19h9.5a2.375,2.375,0,0,0,2.375-2.375V4.75A2.376,2.376,0,0,0,11.875,2.375Zm-4.75-.594a.891.891,0,1,1-.891.891A.892.892,0,0,1,7.125,1.781Zm5.344,14.844a.594.594,0,0,1-.594.594h-.06a3.557,3.557,0,0,0-3.5-2.969H5.938a3.556,3.556,0,0,0-3.5,2.969h-.06a.594.594,0,0,1-.594-.594V4.75a.594.594,0,0,1,.594-.594h.678a2.338,2.338,0,0,0-.084.594v.594a.6.6,0,0,0,.594.594h7.125a.594.594,0,0,0,.594-.594V4.75a2.353,2.353,0,0,0-.084-.594h.678a.594.594,0,0,1,.594.594ZM7.125,8.313A2.375,2.375,0,1,0,9.5,10.688,2.377,2.377,0,0,0,7.125,8.313Z" transform="translate(1089.375 2082)" fill="#cacaca"/>
  </g>
</svg>
