<svg id="location" xmlns="http://www.w3.org/2000/svg" width="12.209" height="15.872" viewBox="0 0 12.209 15.872">
  <g id="Oval" fill="#f52d56" stroke-miterlimit="10">
    <path d="M 6.096732616424561 13.99640941619873 C 5.176760196685791 13.05427837371826 3.611506223678589 11.14573287963867 3.031183242797852 10.20315933227539 C 1.979843258857727 8.495559692382812 1.500003218650818 7.716199398040771 1.500003218650818 6.102259159088135 C 1.500003218650818 3.564569234848022 3.565593242645264 1.499999284744263 6.10455322265625 1.499999284744263 C 8.643513679504395 1.499999284744263 10.70910358428955 3.564569234848022 10.70910358428955 6.102259159088135 C 10.70910358428955 7.633259296417236 10.23592281341553 8.400189399719238 9.199163436889648 10.08053970336914 L 9.124063491821289 10.20227909088135 C 8.583222389221191 11.07938003540039 7.021887302398682 13.03149318695068 6.096732616424561 13.99640941619873 Z" stroke="none"/>
    <path d="M 6.08655309677124 11.73734378814697 C 6.799953937530518 10.87748622894287 7.545762538909912 9.903976440429688 7.847283363342285 9.414989471435547 L 7.922593116760254 9.292909622192383 C 8.942362785339355 7.640079498291016 9.209103584289551 7.163929462432861 9.209103584289551 6.102259159088135 C 9.209103584289551 4.391669273376465 7.816403388977051 2.999999284744263 6.10455322265625 2.999999284744263 C 4.392703056335449 2.999999284744263 3.000003337860107 4.391669273376465 3.000003337860107 6.102259159088135 C 3.000003337860107 7.244309425354004 3.271293163299561 7.732099056243896 4.308503150939941 9.416739463806152 C 4.628589630126953 9.936631202697754 5.3759765625 10.89583206176758 6.08655309677124 11.73734378814697 M 6.10455322265625 15.87183952331543 C 5.485153198242188 15.87183952331543 2.530503273010254 12.25100898742676 1.753863215446472 10.98957920074463 C 0.6395832300186157 9.179749488830566 3.222656232537702e-06 8.114259719848633 3.222656232537702e-06 6.102259159088135 C 3.222656232537702e-06 2.732079267501831 2.733103275299072 -7.151794534365763e-07 6.10455322265625 -7.151794534365763e-07 C 9.476003646850586 -7.151794534365763e-07 12.20910358428955 2.732079267501831 12.20910358428955 6.102259159088135 C 12.20910358428955 8.103849411010742 11.51885318756104 9.176468849182129 10.40084362030029 10.98957920074463 C 9.673542976379395 12.16906929016113 6.723953247070312 15.87183952331543 6.10455322265625 15.87183952331543 Z" stroke="none" fill="#f52d56"/>
  </g>
  <circle id="Oval-2" data-name="Oval" cx="3.256" cy="3.256" r="3.256" transform="translate(2.849 2.849)" fill="#fff"/>
</svg>
