<svg xmlns="http://www.w3.org/2000/svg" xmlns:xlink="http://www.w3.org/1999/xlink" width="16" height="16" viewBox="0 0 16 16">
  <defs>
    <clipPath id="clip-path">
      <rect id="icon" width="16" height="16" transform="translate(105 13)" fill="#fff"/>
    </clipPath>
  </defs>
  <g id="Mask_Group_139" data-name="Mask Group 139" transform="translate(-105 -13)" clip-path="url(#clip-path)">
    <path id="map-marker-alt" d="M6,0A6,6,0,0,0,0,6c0,2.222.75,2.917,4.727,9.295a1.5,1.5,0,0,0,2.546,0C11.252,8.914,12,8.222,12,6A6,6,0,0,0,6,0ZM6,14.5C2.018,8.115,1.5,7.712,1.5,6a4.5,4.5,0,1,1,9,0C10.5,7.7,10.026,8.045,6,14.5ZM3.5,6A2.5,2.5,0,1,1,6,8.5,2.5,2.5,0,0,1,3.5,6Z" transform="translate(107 13)" fill="#fff"/>
  </g>
</svg>
