<svg xmlns="http://www.w3.org/2000/svg" xmlns:xlink="http://www.w3.org/1999/xlink" width="22" height="22" viewBox="0 0 22 22">
  <defs>
    <clipPath id="clip-path">
      <rect id="icon" width="22" height="22" transform="translate(315 15)" fill="#816cf3"/>
    </clipPath>
  </defs>
  <g id="Mask_Group_114" data-name="Mask Group 114" transform="translate(-315 -15)" clip-path="url(#clip-path)">
    <path id="envelope" d="M19.938,2.75H2.063A2.062,2.062,0,0,0,0,4.813V17.188A2.062,2.062,0,0,0,2.063,19.25H19.938A2.062,2.062,0,0,0,22,17.188V4.813A2.062,2.062,0,0,0,19.938,2.75Zm0,2.063V6.566c-.963.785-2.5,2-5.783,4.576C13.431,11.711,12,13.078,11,13.062c-1,.016-2.431-1.352-3.154-1.921C4.562,8.571,3.026,7.351,2.063,6.566V4.813ZM2.063,17.188V9.212C3.047,10,4.443,11.1,6.572,12.764c.939.739,2.584,2.371,4.428,2.361,1.835.01,3.459-1.6,4.428-2.361C17.556,11.1,18.953,10,19.938,9.212v7.975Z" transform="translate(315 15)" fill="#816cf3"/>
  </g>
</svg>
