<svg xmlns="http://www.w3.org/2000/svg" xmlns:xlink="http://www.w3.org/1999/xlink" width="19" height="18" viewBox="0 0 19 18">
  <defs>
    <clipPath id="clip-path">
      <rect id="icon" width="19" height="18" transform="translate(105.177 1.674)" fill="#22b567"/>
    </clipPath>
  </defs>
  <g id="Mask_Group_105" data-name="Mask Group 105" transform="translate(-105.177 -1.674)" clip-path="url(#clip-path)">
    <path id="box-check" d="M14.621,3.96l-1-2.987A1.421,1.421,0,0,0,12.273,0H2.927A1.421,1.421,0,0,0,1.576.974L.074,5.48A1.452,1.452,0,0,0,0,5.932v7.843A1.425,1.425,0,0,0,1.425,15.2H13.3A5.7,5.7,0,0,0,14.621,3.96ZM8.313,1.425h3.96l.8,2.387A5.672,5.672,0,0,0,9.277,5.463H8.313Zm-5.385,0h3.96V5.463H1.582Zm-1.5,12.35V6.887H8.238a5.677,5.677,0,0,0,1.3,6.887Zm11.875,0A4.275,4.275,0,1,1,17.575,9.5,4.28,4.28,0,0,1,13.3,13.775Zm1.918-6.107a.235.235,0,0,0-.333,0L12.81,9.726l-.9-.908a.235.235,0,0,0-.333,0l-.555.552a.235.235,0,0,0,0,.333l1.615,1.63a.235.235,0,0,0,.333,0l2.8-2.776a.235.235,0,0,0,0-.333l-.549-.555Z" transform="translate(105.177 3.074)" fill="#22b567"/>
  </g>
</svg>
