<svg xmlns="http://www.w3.org/2000/svg" xmlns:xlink="http://www.w3.org/1999/xlink" width="20" height="20" viewBox="0 0 20 20">
  <defs>
    <clipPath id="clip-path">
      <rect id="icon" width="20" height="20" transform="translate(11 11)" fill="#0004bd"/>
    </clipPath>
  </defs>
  <g id="Mask_Group_116" data-name="Mask Group 116" transform="translate(-11 -11)" clip-path="url(#clip-path)">
    <path id="pencil" d="M19.2,2.876,17.1.773a2.635,2.635,0,0,0-3.729,0L.973,13.089l-.96,5.82A.937.937,0,0,0,1.09,19.987l5.82-.96,12.317-12.4A2.638,2.638,0,0,0,19.2,2.876ZM4.713,11.8l6.651-6.608,3.447,3.447L8.2,15.287V13.672H6.328V11.8Zm-1.5,6.1-1.1-1.1.474-2.874L3.3,13.2H4.922v1.875H6.8V16.7l-.714.719Zm14.8-12.482,0,0,0,0L16.132,7.306,12.694,3.868l1.888-1.876,0,0,0,0a.916.916,0,0,1,1.3,0l2.1,2.1A.919.919,0,0,1,18.012,5.414Z" transform="translate(11 11)" fill="#0004bd"/>
  </g>
</svg>
