<svg xmlns="http://www.w3.org/2000/svg" xmlns:xlink="http://www.w3.org/1999/xlink" width="16" height="16" viewBox="0 0 16 16">
  <defs>
    <clipPath id="clip-path">
      <rect id="icon" width="16" height="16" transform="translate(13 13)" fill="#0004bd"/>
    </clipPath>
  </defs>
  <g id="Mask_Group_58" data-name="Mask Group 58" transform="translate(-13 -13)" clip-path="url(#clip-path)">
    <path id="mobile-notch" d="M7.5,12.5h-3a.5.5,0,0,0,0,1h3a.5.5,0,0,0,0-1ZM9.5,0h-7a2,2,0,0,0-2,2V14a2,2,0,0,0,2,2h7a2,2,0,0,0,2-2V2A2,2,0,0,0,9.5,0ZM10,14a.5.5,0,0,1-.5.5h-7A.5.5,0,0,1,2,14V2a.5.5,0,0,1,.5-.5H4v1a.5.5,0,0,0,.5.5h3A.5.5,0,0,0,8,2.5v-1H9.5A.5.5,0,0,1,10,2Z" transform="translate(15 13)" fill="#0004bd"/>
  </g>
</svg>
