<svg xmlns="http://www.w3.org/2000/svg" xmlns:xlink="http://www.w3.org/1999/xlink" width="12" height="12" viewBox="0 0 12 12">
  <defs>
    <clipPath id="clip-path">
      <rect id="icon" width="12" height="12" transform="translate(82 10)" fill="#0004bd"/>
    </clipPath>
  </defs>
  <g id="Mask_Group_102" data-name="Mask Group 102" transform="translate(-82 -10)" clip-path="url(#clip-path)">
    <path id="check-double" d="M11.9,4.759,11.162,4a.381.381,0,0,0-.236-.078A.283.283,0,0,0,10.717,4L3.825,10.916,1.284,8.375a.248.248,0,0,0-.209-.1.324.324,0,0,0-.236.1L.1,9.108a.327.327,0,0,0-.1.236.249.249,0,0,0,.1.209L3.59,13.064a.381.381,0,0,0,.236.079.282.282,0,0,0,.209-.079L11.9,5.2a.327.327,0,0,0,.1-.236A.248.248,0,0,0,11.9,4.759ZM3.533,7.921A.386.386,0,0,0,3.77,8a.285.285,0,0,0,.211-.079L9.465,2.438A.331.331,0,0,0,9.57,2.2a.252.252,0,0,0-.106-.211l-.74-.767a.386.386,0,0,0-.238-.079.285.285,0,0,0-.211.079L3.77,5.753,2.152,4.135a.25.25,0,0,0-.211-.106.327.327,0,0,0-.238.106l-.74.74a.331.331,0,0,0-.106.238.252.252,0,0,0,.106.211l2.57,2.6Z" transform="translate(82 8.857)" fill="#0004bd"/>
  </g>
</svg>
