<svg xmlns="http://www.w3.org/2000/svg" xmlns:xlink="http://www.w3.org/1999/xlink" width="19" height="19" viewBox="0 0 19 19">
  <defs>
    <clipPath id="clip-path">
      <rect id="icon" width="19" height="19" transform="translate(287 3)" fill="#0004bd"/>
    </clipPath>
  </defs>
  <g id="Mask_Group_99" data-name="Mask Group 99" transform="translate(-287 -3)" clip-path="url(#clip-path)">
    <path id="receipt" d="M12.764,10.686H3.859a.3.3,0,0,0-.3.3V12.17a.3.3,0,0,0,.3.3h8.905a.3.3,0,0,0,.3-.3V10.983A.3.3,0,0,0,12.764,10.686ZM14.871.211,13.257,1.373,11.825.341a1.777,1.777,0,0,0-2.082,0L8.311,1.373,6.879.341A1.777,1.777,0,0,0,4.8.341L3.365,1.373,1.751.211A1.1,1.1,0,0,0,0,1.109V17.892a1.106,1.106,0,0,0,1.751.9l1.614-1.165L4.8,18.656a1.777,1.777,0,0,0,2.082,0l1.432-1.032,1.432,1.032a1.777,1.777,0,0,0,2.082,0l1.432-1.032,1.614,1.161a1.1,1.1,0,0,0,1.751-.894V1.109A1.105,1.105,0,0,0,14.871.211Zm-.03,16.356-1.584-1.139-2.475,1.781L8.308,15.428,5.833,17.209,3.358,15.428,1.781,16.567V2.43L3.365,3.569,5.84,1.788,8.315,3.569,10.79,1.788l2.475,1.781L14.842,2.43ZM12.764,6.53H3.859a.3.3,0,0,0-.3.3V8.015a.3.3,0,0,0,.3.3h8.905a.3.3,0,0,0,.3-.3V6.827A.3.3,0,0,0,12.764,6.53Z" transform="translate(288.189 3)" fill="#0004bd"/>
  </g>
</svg>
