<svg id="Button-icon" xmlns="http://www.w3.org/2000/svg" xmlns:xlink="http://www.w3.org/1999/xlink" width="42" height="42" viewBox="0 0 42 42">
  <defs>
    <linearGradient id="linear-gradient" x1="0.5" x2="0.5" y2="1" gradientUnits="objectBoundingBox">
      <stop offset="0" stop-color="#22b567"/>
      <stop offset="1" stop-color="#00a186"/>
    </linearGradient>
    <clipPath id="clip-path">
      <rect id="icon" width="18" height="18" transform="translate(12 12)" fill="#fff"/>
    </clipPath>
  </defs>
  <rect id="base" width="42" height="42" rx="21" fill="url(#linear-gradient)"/>
  <g id="Mask_Group_142" data-name="Mask Group 142" clip-path="url(#clip-path)">
    <path id="microphone" d="M11.813,6.75H11.25a.562.562,0,0,0-.562.563V9a4.505,4.505,0,0,1-4.95,4.478A4.637,4.637,0,0,1,1.688,8.8V7.313a.562.562,0,0,0-.562-.562H.563A.562.562,0,0,0,0,7.313V8.724a6.381,6.381,0,0,0,5.344,6.388v1.2H3.375a.562.562,0,0,0-.562.563v.563A.562.562,0,0,0,3.375,18H9a.562.562,0,0,0,.563-.562v-.562A.562.562,0,0,0,9,16.313H7.031V15.125A6.194,6.194,0,0,0,12.375,9V7.313A.562.562,0,0,0,11.813,6.75ZM6.188,12.375A3.375,3.375,0,0,0,9.563,9V3.375a3.375,3.375,0,0,0-6.75,0V9A3.375,3.375,0,0,0,6.188,12.375Zm-1.687-9a1.688,1.688,0,0,1,3.375,0V9A1.688,1.688,0,0,1,4.5,9Z" transform="translate(14.813 12)" fill="#fff"/>
  </g>
</svg>
