<svg xmlns="http://www.w3.org/2000/svg" xmlns:xlink="http://www.w3.org/1999/xlink" width="27" height="27" viewBox="0 0 27 27">
  <defs>
    <clipPath id="clip-path">
      <rect id="icon" width="27" height="27" transform="translate(145 5)" fill="#0004bd"/>
    </clipPath>
  </defs>
  <g id="Mask_Group_134" data-name="Mask Group 134" transform="translate(-145 -5)" clip-path="url(#clip-path)">
    <path id="cog" d="M24.633,12.9l1.733-1a1.308,1.308,0,0,0,.608-1.473A13.477,13.477,0,0,0,23.488,4.4a1.307,1.307,0,0,0-1.578-.207l-1.73,1a10.684,10.684,0,0,0-1.791-1.035v-2A1.307,1.307,0,0,0,17.418.889a13.588,13.588,0,0,0-6.964,0,1.307,1.307,0,0,0-.971,1.263v2A10.684,10.684,0,0,0,7.691,5.188l-1.73-1A1.307,1.307,0,0,0,4.383,4.4,13.477,13.477,0,0,0,.9,10.428,1.308,1.308,0,0,0,1.5,11.9l1.733,1a10.763,10.763,0,0,0,0,2.068l-1.733,1A1.308,1.308,0,0,0,.9,17.443a13.477,13.477,0,0,0,3.487,6.031,1.307,1.307,0,0,0,1.578.207l1.73-1a10.681,10.681,0,0,0,1.791,1.035v2a1.307,1.307,0,0,0,.971,1.263,13.587,13.587,0,0,0,6.964,0,1.307,1.307,0,0,0,.971-1.263v-2a10.688,10.688,0,0,0,1.791-1.035l1.73,1a1.307,1.307,0,0,0,1.578-.207,13.477,13.477,0,0,0,3.487-6.031,1.308,1.308,0,0,0-.608-1.473l-1.733-1A10.763,10.763,0,0,0,24.633,12.9Zm-2.868,3.43,2.385,1.377a10.9,10.9,0,0,1-1.843,3.186l-2.386-1.378a9.273,9.273,0,0,1-4.146,2.4v2.754a10.937,10.937,0,0,1-3.681,0V21.913a9.275,9.275,0,0,1-4.146-2.4L5.563,20.894A10.9,10.9,0,0,1,3.72,17.708l2.385-1.377a9.369,9.369,0,0,1,0-4.792L3.72,10.163A10.9,10.9,0,0,1,5.563,6.977L7.949,8.354a9.273,9.273,0,0,1,4.146-2.4V3.2a10.937,10.937,0,0,1,3.681,0V5.958a9.275,9.275,0,0,1,4.146,2.4l2.386-1.378a10.9,10.9,0,0,1,1.843,3.186l-2.385,1.377a9.369,9.369,0,0,1,0,4.792ZM13.936,8.71a5.226,5.226,0,1,0,5.226,5.226A5.232,5.232,0,0,0,13.936,8.71Zm0,7.839a2.613,2.613,0,1,1,2.613-2.613A2.616,2.616,0,0,1,13.936,16.548Z" transform="translate(144.564 4.565)" fill="#0004bd"/>
  </g>
</svg>
