<svg xmlns="http://www.w3.org/2000/svg" xmlns:xlink="http://www.w3.org/1999/xlink" width="34.345" height="34.345" viewBox="0 0 34.345 34.345">
  <defs>
    <clipPath id="clip-path">
      <rect id="icon" width="34.345" height="34.345" fill="#cacaca"/>
    </clipPath>
  </defs>
  <g id="Mask_Group_83" data-name="Mask Group 83" clip-path="url(#clip-path)">
    <path id="star" d="M33.276,10.9,23.9,9.546,19.7,1.132a2.065,2.065,0,0,0-3.685,0L11.828,9.546,2.449,10.9a2.029,2.029,0,0,0-1.136,3.47L8.1,20.915l-1.6,9.247A2.049,2.049,0,0,0,9.472,32.3l8.391-4.366L26.253,32.3a2.05,2.05,0,0,0,2.979-2.142l-1.6-9.247,6.786-6.546a2.029,2.029,0,0,0-1.136-3.47Zm-8.955,8.948,1.521,8.8-7.98-4.15-7.98,4.15,1.521-8.8L4.946,13.619l8.923-1.284,3.993-8.007,3.993,8.007,8.923,1.284-6.458,6.228Z" transform="translate(-0.69 0.729)" fill="#cacaca"/>
  </g>
</svg>
