<svg xmlns="http://www.w3.org/2000/svg" xmlns:xlink="http://www.w3.org/1999/xlink" width="34.345" height="34.345" viewBox="0 0 34.345 34.345">
  <defs>
    <clipPath id="clip-path">
      <rect id="icon" width="34.345" height="34.345" fill="#fad934"/>
    </clipPath>
  </defs>
  <g id="Mask_Group_85" data-name="Mask Group 85" clip-path="url(#clip-path)">
    <path id="star" d="M24.046,9.678l9.346,1.365a2.054,2.054,0,0,1,1.158,3.5l-6.777,6.58,1.6,9.438a2.045,2.045,0,0,1-.839,2.015,2.1,2.1,0,0,1-2.192.148l-8.351-4.41-8.344,4.41a2.113,2.113,0,0,1-2.2-.148,2.04,2.04,0,0,1-.832-2.015l1.6-9.438-6.778-6.58a2.054,2.054,0,0,1,1.16-3.5l9.338-1.365,4.188-8.52a2.087,2.087,0,0,1,3.74,0Z" transform="translate(-0.821 0.518)" fill="#fad934"/>
  </g>
</svg>
