<svg xmlns="http://www.w3.org/2000/svg" xmlns:xlink="http://www.w3.org/1999/xlink" width="20" height="20" viewBox="0 0 20 20">
  <defs>
    <clipPath id="clip-path">
      <rect id="Rectangle_3090" data-name="Rectangle 3090" width="20" height="20" transform="translate(50 10)" fill="#0004bd"/>
    </clipPath>
  </defs>
  <g id="Mask_Group_123" data-name="Mask Group 123" transform="translate(-50 -10)" clip-path="url(#clip-path)">
    <path id="user-circle" d="M10,4.194a3.871,3.871,0,1,0,3.871,3.871A3.872,3.872,0,0,0,10,4.194ZM10,10a1.935,1.935,0,1,1,1.935-1.935A1.936,1.936,0,0,1,10,10ZM10,.323a10,10,0,1,0,10,10A10,10,0,0,0,10,.323Zm0,18.065a8.019,8.019,0,0,1-5.246-1.952A3.474,3.474,0,0,1,7.56,14.843,8.2,8.2,0,0,0,10,15.23a8.076,8.076,0,0,0,2.44-.387,3.484,3.484,0,0,1,2.806,1.593A8.019,8.019,0,0,1,10,18.387ZM16.56,15A5.349,5.349,0,0,0,12.323,12.9,12.1,12.1,0,0,1,10,13.29,12.166,12.166,0,0,1,7.677,12.9,5.36,5.36,0,0,0,3.44,15a8.06,8.06,0,1,1,14.625-4.673A8.007,8.007,0,0,1,16.56,15Z" transform="translate(50 9.677)" fill="#0004bd"/>
  </g>
</svg>
